<svg xmlns="http://www.w3.org/2000/svg" width="1000" height="1000" fill="none" viewBox="250 240 500 560"><mask id="a" width="84" height="374" x="310" y="366" maskUnits="userSpaceOnUse" style="mask-type:luminance"><path fill="#fff" d="M310 366h83.047v373.391H310z"/></mask><g mask="url(#a)"><mask id="b" width="84" height="374" x="310" y="366" maskUnits="userSpaceOnUse" style="mask-type:luminance"><path fill="#fff" d="M310 415.271c0-27.058 18.594-49 41.526-49s41.521 21.942 41.521 49v275.12c0 27.057-18.589 49-41.521 49S310 717.448 310 690.391z"/></mask><g mask="url(#b)"><mask id="c" width="85" height="376" x="309" y="365" maskUnits="userSpaceOnUse" style="mask-type:luminance"><path fill="#fff" d="M393.438 365.963h-84V740.63h84z"/></mask><g mask="url(#c)"><mask id="d" width="84" height="374" x="310" y="366" maskUnits="userSpaceOnUse" style="mask-type:luminance"><path fill="#fff" d="M310 366.229h83.047V739.39H310z"/></mask><g mask="url(#d)"><mask id="e" width="84" height="374" x="310" y="366" maskUnits="userSpaceOnUse" style="mask-type:luminance"><path fill="#fff" d="M310 415.271c0-27.058 18.594-49 41.526-49s41.521 21.942 41.521 49v275.12c0 27.057-18.589 49-41.521 49S310 717.448 310 690.391z"/></mask><g mask="url(#e)"><path fill="#0033a0" d="M310 739.39V366.323h83.047V739.39z"/></g></g></g></g></g><mask id="f" width="71" height="71" x="613" y="365" maskUnits="userSpaceOnUse" style="mask-type:luminance"><path fill="#fff" d="M613.75 365.188h69.865v70.682H613.75z"/></mask><g mask="url(#f)"><mask id="g" width="71" height="71" x="613" y="365" maskUnits="userSpaceOnUse" style="mask-type:luminance"><path fill="#fff" d="M613.75 400.635c0-19.458 15.641-35.234 34.932-35.234s34.933 15.776 34.933 35.234c0 19.464-15.641 35.235-34.933 35.235-19.291 0-34.932-15.771-34.932-35.235"/></mask><g mask="url(#g)"><mask id="h" width="72" height="73" x="613" y="365" maskUnits="userSpaceOnUse" style="mask-type:luminance"><path fill="#fff" d="M684.104 365.094h-70.666v72h70.666z"/></mask><g mask="url(#h)"><mask id="i" width="71" height="71" x="613" y="365" maskUnits="userSpaceOnUse" style="mask-type:luminance"><path fill="#fff" d="M613.75 365.359h69.865v70.511H613.75z"/></mask><g mask="url(#i)"><mask id="j" width="71" height="71" x="613" y="365" maskUnits="userSpaceOnUse" style="mask-type:luminance"><path fill="#fff" d="M613.75 400.635c0-19.458 15.641-35.234 34.932-35.234s34.933 15.776 34.933 35.234c0 19.464-15.641 35.235-34.933 35.235-19.291 0-34.932-15.771-34.932-35.235"/></mask><g mask="url(#j)"><path fill="#0033a0" d="M613.75 435.87v-70.412h69.865v70.412z"/></g></g></g></g></g><mask id="k" width="381" height="84" x="310" y="267" maskUnits="userSpaceOnUse" style="mask-type:luminance"><path fill="#fff" d="M310 267h380.219v83.052H310z"/></mask><g mask="url(#k)"><mask id="l" width="381" height="84" x="310" y="267" maskUnits="userSpaceOnUse" style="mask-type:luminance"><path fill="#fff" d="M641.198 267c27.062 0 49 18.589 49 41.526 0 22.932-21.938 41.526-49 41.526H359c-27.062 0-49-18.594-49-41.526C310 285.589 331.938 267 359 267z"/></mask><g mask="url(#l)"><mask id="m" width="382" height="87" x="309" y="265" maskUnits="userSpaceOnUse" style="mask-type:luminance"><path fill="#fff" d="M690.765 265.76H309.432v85.334h381.333z"/></mask><g mask="url(#m)"><mask id="n" width="381" height="84" x="310" y="267" maskUnits="userSpaceOnUse" style="mask-type:luminance"><path fill="#fff" d="M310 267h380.219v83.052H310z"/></mask><g mask="url(#n)"><mask id="o" width="381" height="84" x="310" y="267" maskUnits="userSpaceOnUse" style="mask-type:luminance"><path fill="#fff" d="M641.198 267c27.062 0 49 18.589 49 41.526 0 22.932-21.938 41.526-49 41.526H359c-27.062 0-49-18.594-49-41.526C310 285.589 331.938 267 359 267z"/></mask><g mask="url(#o)"><path fill="#0033a0" d="M310 267h380.219v83.052H310z"/></g></g></g></g></g><mask id="p" width="84" height="374" x="409" y="366" maskUnits="userSpaceOnUse" style="mask-type:luminance"><path fill="#fff" d="M409.052 366h83.052v373.406h-83.052z"/></mask><g mask="url(#p)"><mask id="q" width="84" height="374" x="409" y="366" maskUnits="userSpaceOnUse" style="mask-type:luminance"><path fill="#fff" d="M409.052 415.292c0-27.063 18.588-49 41.526-49 22.932 0 41.526 21.937 41.526 49v275.114c0 27.063-18.594 49-41.526 49-22.938 0-41.526-21.937-41.526-49z"/></mask><g mask="url(#q)"><mask id="r" width="85" height="376" x="408" y="365" maskUnits="userSpaceOnUse" style="mask-type:luminance"><path fill="#fff" d="M492.104 365.984h-84v374.667h84z"/></mask><g mask="url(#r)"><mask id="s" width="84" height="374" x="409" y="366" maskUnits="userSpaceOnUse" style="mask-type:luminance"><path fill="#fff" d="M409.052 366.25h83.052v373.156h-83.052z"/></mask><g mask="url(#s)"><mask id="t" width="84" height="374" x="409" y="366" maskUnits="userSpaceOnUse" style="mask-type:luminance"><path fill="#fff" d="M409.052 415.292c0-27.063 18.588-49 41.526-49 22.932 0 41.526 21.937 41.526 49v275.114c0 27.063-18.594 49-41.526 49-22.938 0-41.526-21.937-41.526-49z"/></mask><g mask="url(#t)"><path fill="#0033a0" d="M409.052 739.406V366.323h83.052v373.083z"/></g></g></g></g></g><mask id="u" width="84" height="179" x="508" y="366" maskUnits="userSpaceOnUse" style="mask-type:luminance"><path fill="#fff" d="M508 366h83.052v178.755H508z"/></mask><g mask="url(#u)"><mask id="v" width="84" height="179" x="508" y="366" maskUnits="userSpaceOnUse" style="mask-type:luminance"><path fill="#fff" d="M508 415.109c0-27.062 18.594-49 41.526-49 22.938 0 41.526 21.938 41.526 49v80.646c0 27.063-18.588 49-41.526 49-22.932 0-41.526-21.937-41.526-49z"/></mask><g mask="url(#v)"><mask id="w" width="87" height="181" x="506" y="365" maskUnits="userSpaceOnUse" style="mask-type:luminance"><path fill="#fff" d="M592.005 365.802h-85.333v180h85.333z"/></mask><g mask="url(#w)"><mask id="x" width="84" height="179" x="508" y="366" maskUnits="userSpaceOnUse" style="mask-type:luminance"><path fill="#fff" d="M508 366.068h83.052v178.687H508z"/></mask><g mask="url(#x)"><mask id="y" width="84" height="179" x="508" y="366" maskUnits="userSpaceOnUse" style="mask-type:luminance"><path fill="#fff" d="M508 415.109c0-27.062 18.594-49 41.526-49 22.938 0 41.526 21.938 41.526 49v80.646c0 27.063-18.588 49-41.526 49-22.932 0-41.526-21.937-41.526-49z"/></mask><g mask="url(#y)"><path fill="#0033a0" d="M508 544.755V366h83.052v178.755z"/></g></g></g></g></g><mask id="z" width="84" height="179" x="508" y="560" maskUnits="userSpaceOnUse" style="mask-type:luminance"><path fill="#fff" d="M508.104 560h83.052v178.755h-83.052z"/></mask><g mask="url(#z)"><mask id="A" width="84" height="179" x="508" y="560" maskUnits="userSpaceOnUse" style="mask-type:luminance"><path fill="#fff" d="M508.104 609.109c0-27.062 18.594-49 41.526-49 22.938 0 41.526 21.938 41.526 49v80.646c0 27.063-18.588 49-41.526 49-22.932 0-41.526-21.937-41.526-49z"/></mask><g mask="url(#A)"><mask id="B" width="87" height="180" x="506" y="560" maskUnits="userSpaceOnUse" style="mask-type:luminance"><path fill="#fff" d="M592.109 560h-85.333v180h85.333z"/></mask><g mask="url(#B)"><mask id="C" width="84" height="179" x="508" y="560" maskUnits="userSpaceOnUse" style="mask-type:luminance"><path fill="#fff" d="M508.104 560h83.052v178.755h-83.052z"/></mask><g mask="url(#C)"><mask id="D" width="84" height="179" x="508" y="560" maskUnits="userSpaceOnUse" style="mask-type:luminance"><path fill="#fff" d="M508.104 609.109c0-27.062 18.594-49 41.526-49 22.938 0 41.526 21.938 41.526 49v80.646c0 27.063-18.588 49-41.526 49-22.932 0-41.526-21.937-41.526-49z"/></mask><g mask="url(#D)"><path fill="#0033a0" d="M508.104 738.755V560h83.052v178.755z"/></g></g></g></g></g><mask id="E" width="84" height="289" x="608" y="451" maskUnits="userSpaceOnUse" style="mask-type:luminance"><path fill="#fff" d="M608.151 451h83.052v288.083h-83.052z"/></mask><g mask="url(#E)"><mask id="F" width="84" height="289" x="608" y="451" maskUnits="userSpaceOnUse" style="mask-type:luminance"><path fill="#fff" d="M608.151 500.26c0-27.062 18.594-49 41.526-49s41.526 21.938 41.526 49v189.823c0 27.063-18.594 49-41.526 49s-41.526-21.937-41.526-49z"/></mask><g mask="url(#F)"><mask id="G" width="85" height="291" x="607" y="450" maskUnits="userSpaceOnUse" style="mask-type:luminance"><path fill="#fff" d="M691.771 450.995h-84v289.333h84z"/></mask><g mask="url(#G)"><mask id="H" width="84" height="289" x="608" y="451" maskUnits="userSpaceOnUse" style="mask-type:luminance"><path fill="#fff" d="M608.151 451.047h83.052v288.036h-83.052z"/></mask><g mask="url(#H)"><mask id="I" width="84" height="289" x="608" y="451" maskUnits="userSpaceOnUse" style="mask-type:luminance"><path fill="#fff" d="M608.151 500.26c0-27.062 18.594-49 41.526-49s41.526 21.938 41.526 49v189.823c0 27.063-18.594 49-41.526 49s-41.526-21.937-41.526-49z"/></mask><g mask="url(#I)"><path fill="#0033a0" d="M608.151 739.083v-287.76h83.052v287.76z"/></g></g></g></g></g></svg>