<svg width="1000" height="1000" viewBox="0 0 1000 1000" fill="none" xmlns="http://www.w3.org/2000/svg">
<rect width="1000" height="1000" fill="white"/>
<mask id="mask0_1827_247" style="mask-type:luminance" maskUnits="userSpaceOnUse" x="310" y="366" width="84" height="374">
<path d="M310 366H393.047V739.391H310V366Z" fill="white"/>
</mask>
<g mask="url(#mask0_1827_247)">
<mask id="mask1_1827_247" style="mask-type:luminance" maskUnits="userSpaceOnUse" x="310" y="366" width="84" height="374">
<path d="M310 415.271C310 388.213 328.594 366.271 351.526 366.271C374.458 366.271 393.047 388.213 393.047 415.271V690.391C393.047 717.448 374.458 739.391 351.526 739.391C328.594 739.391 310 717.448 310 690.391V415.271Z" fill="white"/>
</mask>
<g mask="url(#mask1_1827_247)">
<mask id="mask2_1827_247" style="mask-type:luminance" maskUnits="userSpaceOnUse" x="309" y="365" width="85" height="376">
<path d="M393.438 365.963H309.438V740.63H393.438V365.963Z" fill="white"/>
</mask>
<g mask="url(#mask2_1827_247)">
<mask id="mask3_1827_247" style="mask-type:luminance" maskUnits="userSpaceOnUse" x="310" y="366" width="84" height="374">
<path d="M310 366.229H393.047V739.39H310V366.229Z" fill="white"/>
</mask>
<g mask="url(#mask3_1827_247)">
<mask id="mask4_1827_247" style="mask-type:luminance" maskUnits="userSpaceOnUse" x="310" y="366" width="84" height="374">
<path d="M310 415.271C310 388.213 328.594 366.271 351.526 366.271C374.458 366.271 393.047 388.213 393.047 415.271V690.391C393.047 717.448 374.458 739.391 351.526 739.391C328.594 739.391 310 717.448 310 690.391V415.271Z" fill="white"/>
</mask>
<g mask="url(#mask4_1827_247)">
<path d="M310 739.39V366.323H393.047V739.39H310Z" fill="#0033A0"/>
</g>
</g>
</g>
</g>
</g>
<mask id="mask5_1827_247" style="mask-type:luminance" maskUnits="userSpaceOnUse" x="613" y="365" width="71" height="71">
<path d="M613.75 365.188H683.615V435.87H613.75V365.188Z" fill="white"/>
</mask>
<g mask="url(#mask5_1827_247)">
<mask id="mask6_1827_247" style="mask-type:luminance" maskUnits="userSpaceOnUse" x="613" y="365" width="71" height="71">
<path d="M613.75 400.635C613.75 381.177 629.391 365.401 648.682 365.401C667.974 365.401 683.615 381.177 683.615 400.635C683.615 420.099 667.974 435.87 648.682 435.87C629.391 435.87 613.75 420.099 613.75 400.635Z" fill="white"/>
</mask>
<g mask="url(#mask6_1827_247)">
<mask id="mask7_1827_247" style="mask-type:luminance" maskUnits="userSpaceOnUse" x="613" y="365" width="72" height="73">
<path d="M684.104 365.094H613.438V437.094H684.104V365.094Z" fill="white"/>
</mask>
<g mask="url(#mask7_1827_247)">
<mask id="mask8_1827_247" style="mask-type:luminance" maskUnits="userSpaceOnUse" x="613" y="365" width="71" height="71">
<path d="M613.75 365.359H683.615V435.87H613.75V365.359Z" fill="white"/>
</mask>
<g mask="url(#mask8_1827_247)">
<mask id="mask9_1827_247" style="mask-type:luminance" maskUnits="userSpaceOnUse" x="613" y="365" width="71" height="71">
<path d="M613.75 400.635C613.75 381.177 629.391 365.401 648.682 365.401C667.974 365.401 683.615 381.177 683.615 400.635C683.615 420.099 667.974 435.87 648.682 435.87C629.391 435.87 613.75 420.099 613.75 400.635Z" fill="white"/>
</mask>
<g mask="url(#mask9_1827_247)">
<path d="M613.75 435.87V365.458H683.615V435.87H613.75Z" fill="#0033A0"/>
</g>
</g>
</g>
</g>
</g>
<mask id="mask10_1827_247" style="mask-type:luminance" maskUnits="userSpaceOnUse" x="310" y="267" width="381" height="84">
<path d="M310 267H690.219V350.052H310V267Z" fill="white"/>
</mask>
<g mask="url(#mask10_1827_247)">
<mask id="mask11_1827_247" style="mask-type:luminance" maskUnits="userSpaceOnUse" x="310" y="267" width="381" height="84">
<path d="M641.198 267C668.26 267 690.198 285.589 690.198 308.526C690.198 331.458 668.26 350.052 641.198 350.052H359C331.938 350.052 310 331.458 310 308.526C310 285.589 331.938 267 359 267H641.198Z" fill="white"/>
</mask>
<g mask="url(#mask11_1827_247)">
<mask id="mask12_1827_247" style="mask-type:luminance" maskUnits="userSpaceOnUse" x="309" y="265" width="382" height="87">
<path d="M690.765 265.76H309.432V351.094H690.765V265.76Z" fill="white"/>
</mask>
<g mask="url(#mask12_1827_247)">
<mask id="mask13_1827_247" style="mask-type:luminance" maskUnits="userSpaceOnUse" x="310" y="267" width="381" height="84">
<path d="M310 267H690.219V350.052H310V267Z" fill="white"/>
</mask>
<g mask="url(#mask13_1827_247)">
<mask id="mask14_1827_247" style="mask-type:luminance" maskUnits="userSpaceOnUse" x="310" y="267" width="381" height="84">
<path d="M641.198 267C668.26 267 690.198 285.589 690.198 308.526C690.198 331.458 668.26 350.052 641.198 350.052H359C331.938 350.052 310 331.458 310 308.526C310 285.589 331.938 267 359 267H641.198Z" fill="white"/>
</mask>
<g mask="url(#mask14_1827_247)">
<path d="M310 267H690.219V350.052H310V267Z" fill="#0033A0"/>
</g>
</g>
</g>
</g>
</g>
<mask id="mask15_1827_247" style="mask-type:luminance" maskUnits="userSpaceOnUse" x="409" y="366" width="84" height="374">
<path d="M409.052 366H492.104V739.406H409.052V366Z" fill="white"/>
</mask>
<g mask="url(#mask15_1827_247)">
<mask id="mask16_1827_247" style="mask-type:luminance" maskUnits="userSpaceOnUse" x="409" y="366" width="84" height="374">
<path d="M409.052 415.292C409.052 388.229 427.64 366.292 450.578 366.292C473.51 366.292 492.104 388.229 492.104 415.292V690.406C492.104 717.469 473.51 739.406 450.578 739.406C427.64 739.406 409.052 717.469 409.052 690.406V415.292Z" fill="white"/>
</mask>
<g mask="url(#mask16_1827_247)">
<mask id="mask17_1827_247" style="mask-type:luminance" maskUnits="userSpaceOnUse" x="408" y="365" width="85" height="376">
<path d="M492.104 365.984H408.104V740.651H492.104V365.984Z" fill="white"/>
</mask>
<g mask="url(#mask17_1827_247)">
<mask id="mask18_1827_247" style="mask-type:luminance" maskUnits="userSpaceOnUse" x="409" y="366" width="84" height="374">
<path d="M409.052 366.25H492.104V739.406H409.052V366.25Z" fill="white"/>
</mask>
<g mask="url(#mask18_1827_247)">
<mask id="mask19_1827_247" style="mask-type:luminance" maskUnits="userSpaceOnUse" x="409" y="366" width="84" height="374">
<path d="M409.052 415.292C409.052 388.229 427.64 366.292 450.578 366.292C473.51 366.292 492.104 388.229 492.104 415.292V690.406C492.104 717.469 473.51 739.406 450.578 739.406C427.64 739.406 409.052 717.469 409.052 690.406V415.292Z" fill="white"/>
</mask>
<g mask="url(#mask19_1827_247)">
<path d="M409.052 739.406V366.323H492.104V739.406H409.052Z" fill="#0033A0"/>
</g>
</g>
</g>
</g>
</g>
<mask id="mask20_1827_247" style="mask-type:luminance" maskUnits="userSpaceOnUse" x="508" y="366" width="84" height="179">
<path d="M508 366H591.052V544.755H508V366Z" fill="white"/>
</mask>
<g mask="url(#mask20_1827_247)">
<mask id="mask21_1827_247" style="mask-type:luminance" maskUnits="userSpaceOnUse" x="508" y="366" width="84" height="179">
<path d="M508 415.109C508 388.047 526.594 366.109 549.526 366.109C572.464 366.109 591.052 388.047 591.052 415.109V495.755C591.052 522.818 572.464 544.755 549.526 544.755C526.594 544.755 508 522.818 508 495.755V415.109Z" fill="white"/>
</mask>
<g mask="url(#mask21_1827_247)">
<mask id="mask22_1827_247" style="mask-type:luminance" maskUnits="userSpaceOnUse" x="506" y="365" width="87" height="181">
<path d="M592.005 365.802H506.672V545.802H592.005V365.802Z" fill="white"/>
</mask>
<g mask="url(#mask22_1827_247)">
<mask id="mask23_1827_247" style="mask-type:luminance" maskUnits="userSpaceOnUse" x="508" y="366" width="84" height="179">
<path d="M508 366.068H591.052V544.755H508V366.068Z" fill="white"/>
</mask>
<g mask="url(#mask23_1827_247)">
<mask id="mask24_1827_247" style="mask-type:luminance" maskUnits="userSpaceOnUse" x="508" y="366" width="84" height="179">
<path d="M508 415.109C508 388.047 526.594 366.109 549.526 366.109C572.464 366.109 591.052 388.047 591.052 415.109V495.755C591.052 522.818 572.464 544.755 549.526 544.755C526.594 544.755 508 522.818 508 495.755V415.109Z" fill="white"/>
</mask>
<g mask="url(#mask24_1827_247)">
<path d="M508 544.755V366H591.052V544.755H508Z" fill="#0033A0"/>
</g>
</g>
</g>
</g>
</g>
<mask id="mask25_1827_247" style="mask-type:luminance" maskUnits="userSpaceOnUse" x="508" y="560" width="84" height="179">
<path d="M508.104 560H591.156V738.755H508.104V560Z" fill="white"/>
</mask>
<g mask="url(#mask25_1827_247)">
<mask id="mask26_1827_247" style="mask-type:luminance" maskUnits="userSpaceOnUse" x="508" y="560" width="84" height="179">
<path d="M508.104 609.109C508.104 582.047 526.698 560.109 549.63 560.109C572.568 560.109 591.156 582.047 591.156 609.109V689.755C591.156 716.818 572.568 738.755 549.63 738.755C526.698 738.755 508.104 716.818 508.104 689.755V609.109Z" fill="white"/>
</mask>
<g mask="url(#mask26_1827_247)">
<mask id="mask27_1827_247" style="mask-type:luminance" maskUnits="userSpaceOnUse" x="506" y="560" width="87" height="180">
<path d="M592.109 560H506.776V740H592.109V560Z" fill="white"/>
</mask>
<g mask="url(#mask27_1827_247)">
<mask id="mask28_1827_247" style="mask-type:luminance" maskUnits="userSpaceOnUse" x="508" y="560" width="84" height="179">
<path d="M508.104 560H591.156V738.755H508.104V560Z" fill="white"/>
</mask>
<g mask="url(#mask28_1827_247)">
<mask id="mask29_1827_247" style="mask-type:luminance" maskUnits="userSpaceOnUse" x="508" y="560" width="84" height="179">
<path d="M508.104 609.109C508.104 582.047 526.698 560.109 549.63 560.109C572.568 560.109 591.156 582.047 591.156 609.109V689.755C591.156 716.818 572.568 738.755 549.63 738.755C526.698 738.755 508.104 716.818 508.104 689.755V609.109Z" fill="white"/>
</mask>
<g mask="url(#mask29_1827_247)">
<path d="M508.104 738.755V560H591.156V738.755H508.104Z" fill="#0033A0"/>
</g>
</g>
</g>
</g>
</g>
<mask id="mask30_1827_247" style="mask-type:luminance" maskUnits="userSpaceOnUse" x="608" y="451" width="84" height="289">
<path d="M608.151 451H691.203V739.083H608.151V451Z" fill="white"/>
</mask>
<g mask="url(#mask30_1827_247)">
<mask id="mask31_1827_247" style="mask-type:luminance" maskUnits="userSpaceOnUse" x="608" y="451" width="84" height="289">
<path d="M608.151 500.26C608.151 473.198 626.745 451.26 649.677 451.26C672.609 451.26 691.203 473.198 691.203 500.26V690.083C691.203 717.146 672.609 739.083 649.677 739.083C626.745 739.083 608.151 717.146 608.151 690.083V500.26Z" fill="white"/>
</mask>
<g mask="url(#mask31_1827_247)">
<mask id="mask32_1827_247" style="mask-type:luminance" maskUnits="userSpaceOnUse" x="607" y="450" width="85" height="291">
<path d="M691.771 450.995H607.771V740.328H691.771V450.995Z" fill="white"/>
</mask>
<g mask="url(#mask32_1827_247)">
<mask id="mask33_1827_247" style="mask-type:luminance" maskUnits="userSpaceOnUse" x="608" y="451" width="84" height="289">
<path d="M608.151 451.047H691.203V739.083H608.151V451.047Z" fill="white"/>
</mask>
<g mask="url(#mask33_1827_247)">
<mask id="mask34_1827_247" style="mask-type:luminance" maskUnits="userSpaceOnUse" x="608" y="451" width="84" height="289">
<path d="M608.151 500.26C608.151 473.198 626.745 451.26 649.677 451.26C672.609 451.26 691.203 473.198 691.203 500.26V690.083C691.203 717.146 672.609 739.083 649.677 739.083C626.745 739.083 608.151 717.146 608.151 690.083V500.26Z" fill="white"/>
</mask>
<g mask="url(#mask34_1827_247)">
<path d="M608.151 739.083V451.323H691.203V739.083H608.151Z" fill="#0033A0"/>
</g>
</g>
</g>
</g>
</g>
</svg>
